<svg width="48" height="34" viewBox="0 0 48 34" fill="none" xmlns="http://www.w3.org/2000/svg">
<path d="M29 11L44 1C36 1 27 1 19 1L3 11C9 12 22 12 29 11Z" fill="#DCEEFF"/>
<path d="M29 11V33M29 11L44 1M29 11C22 12 9 12 3 11M29 33L44 23V1M29 33H3V11M44 1C36 1 27 1 19 1L3 11" stroke="#2167F0" stroke-width="2"/>
<path d="M31 33L29 11C22 12 9 12 3 11L2 33H31Z" fill="#DCEEFF"/>
<path d="M31 33L29 11C22 12 9 12 3 11L2 33H31Z" fill="white"/>
<path d="M29 11L31 33L46 23L44 1L29 11Z" fill="#DCEEFF"/>
<path d="M29 11L31 33L46 23L44 1L29 11Z" fill="white"/>
<path d="M29 11L31 33M29 11L44 1M29 11C22 12 9 12 3 11M31 33L46 23L44 1M31 33H2L3 11M44 1C36 1 26 1 19 1L3 11" stroke="#2167F0" stroke-width="2"/>
</svg>
