<svg width="57" height="34" viewBox="0 0 57 34" fill="none" xmlns="http://www.w3.org/2000/svg">
<path d="M40.5 33L38.5 11C31.5 12 9 12 3 11L2 33H40.5Z" fill="#DCEEFF"/>
<path d="M40.5 33L38.5 11C31.5 12 9 12 3 11L2 33H40.5Z" fill="white"/>
<path d="M38.5 11L40.5 33L55.5 23L53.5 1L38.5 11Z" fill="#DCEEFF"/>
<path d="M38.5 11L40.5 33L55.5 23L53.5 1L38.5 11Z" fill="white"/>
<path d="M38.5 11L40.5 33M38.5 11L53.5 1M38.5 11C31.5 12 9 12 3 11M40.5 33L55.5 23L53.5 1M40.5 33H2L3 11M53.5 1C45.5 1 26 1 19 1L3 11" stroke="#2167F0" stroke-width="2"/>
<path d="M38.5 11L53.5 1H19L3 11C9 12 31.5 12 38.5 11Z" fill="#DCEEFF"/>
<path d="M38.5 11L40.5 33M38.5 11L53.5 1M38.5 11C31.5 12 9 12 3 11M40.5 33L55.5 23L53.5 1M40.5 33H2L3 11M53.5 1C45.5 1 26 1 19 1M53.5 1H19M3 11L19 1" stroke="#2167F0" stroke-width="2"/>
</svg>
