<svg width="69" height="34" viewBox="0 0 69 34" fill="none" xmlns="http://www.w3.org/2000/svg">
<path d="M52 33L50 11C43 12 9 12 3 11L2 33H52Z" fill="#DCEEFF"/>
<path d="M52 33L50 11C43 12 9 12 3 11L2 33H52Z" fill="white"/>
<path d="M50 11L52 33L67 23L65 1L50 11Z" fill="#DCEEFF"/>
<path d="M50 11L52 33L67 23L65 1L50 11Z" fill="white"/>
<path d="M50 11L52 33M50 11L65 1M50 11C43 12 9 12 3 11M52 33L67 23L65 1M52 33H2L3 11M65 1C57 1 26 1 19 1L3 11" stroke="#2167F0" stroke-width="2"/>
<path d="M50 11L65 1H19L3 11C9 12 43 12 50 11Z" fill="#DCEEFF"/>
<path d="M50 11L52 33M50 11L65 1M50 11C43 12 9 12 3 11M52 33L67 23L65 1M52 33H2L3 11M65 1C57 1 26 1 19 1M65 1H19M3 11L19 1" stroke="#2167F0" stroke-width="2"/>
</svg>
