<svg width="78" height="34" viewBox="0 0 78 34" fill="none" xmlns="http://www.w3.org/2000/svg">
<path d="M62.5652 33L60.6522 11C53.9565 12 8.6522 12 2.91306 11L1.95654 33H62.5652Z" fill="#DCEEFF"/>
<path d="M62.5652 33L60.6522 11C53.9565 12 8.6522 12 2.91306 11L1.95654 33H62.5652Z" fill="white"/>
<path d="M60.6522 11L62.5652 33L76.913 23L75 1L60.6522 11Z" fill="#DCEEFF"/>
<path d="M60.6522 11L62.5652 33L76.913 23L75 1L60.6522 11Z" fill="white"/>
<path d="M60.6522 11L62.5652 33M60.6522 11L75 1M60.6522 11C53.9565 12 8.6522 12 2.91306 11M62.5652 33L76.913 23L75 1M62.5652 33H1.95654L2.91306 11M75 1C67.3478 1 24.9131 1 18.2174 1L2.91306 11" stroke="#2167F0" stroke-width="2"/>
<path d="M60.6522 11L75 1H18.2174L2.91306 11C8.6522 12 53.9565 12 60.6522 11Z" fill="#DCEEFF"/>
<path d="M60.6522 11L62.5652 33M60.6522 11L75 1M60.6522 11C53.9565 12 8.6522 12 2.91306 11M62.5652 33L76.913 23L75 1M62.5652 33H1.95654L2.91306 11M75 1C67.3478 1 24.9131 1 18.2174 1M75 1H18.2174M2.91306 11L18.2174 1" stroke="#2167F0" stroke-width="2"/>
</svg>
