<svg width="122" height="34" viewBox="0 0 122 34" fill="none" xmlns="http://www.w3.org/2000/svg">
<path d="M105.5 33L103.5 11C96.5 12 9 12 3 11L2 33H105.5Z" fill="#DCEEFF"/>
<path d="M105.5 33L103.5 11C96.5 12 9 12 3 11L2 33H105.5Z" fill="white"/>
<path d="M103.5 11L105.5 33L120.5 23L118.5 1L103.5 11Z" fill="#DCEEFF"/>
<path d="M103.5 11L105.5 33L120.5 23L118.5 1L103.5 11Z" fill="white"/>
<path d="M103.5 11L105.5 33M103.5 11L118.5 1M103.5 11C96.5 12 9 12 3 11M105.5 33L120.5 23L118.5 1M105.5 33H2L3 11M118.5 1C110.5 1 26 1 19 1L3 11" stroke="#2167F0" stroke-width="2"/>
<path d="M103.5 11L118.5 1H19L3 11C9 12 96.5 12 103.5 11Z" fill="#DCEEFF"/>
<path d="M103.5 11L105.5 33M103.5 11L118.5 1M103.5 11C96.5 12 9 12 3 11M105.5 33L120.5 23L118.5 1M105.5 33H2L3 11M118.5 1C110.5 1 26 1 19 1M118.5 1H19M3 11L19 1" stroke="#2167F0" stroke-width="2"/>
</svg>
