<svg width="253" height="34" viewBox="0 0 253 34" fill="none" xmlns="http://www.w3.org/2000/svg">
<path d="M232.555 33L230 11C221.055 12 10.2222 12 2.55549 11L1.27771 33H232.555Z" fill="#DCEEFF"/>
<path d="M232.555 33L230 11C221.055 12 10.2222 12 2.55549 11L1.27771 33H232.555Z" fill="white"/>
<path d="M230 11L232.555 33L251.722 23L249.167 1L230 11Z" fill="#DCEEFF"/>
<path d="M230 11L232.555 33L251.722 23L249.167 1L230 11Z" fill="white"/>
<path d="M230 11L232.555 33M230 11L249.167 1M230 11C221.055 12 10.2222 12 2.55549 11M232.555 33L251.722 23L249.167 1M232.555 33H1.27771L2.55549 11M249.167 1C238.944 1 31.9444 1 22.9999 1L2.55549 11" stroke="#2167F0" stroke-width="2"/>
<path d="M230 11L249.167 1H22.9999L2.55549 11C10.2222 12 221.055 12 230 11Z" fill="#DCEEFF"/>
<path d="M230 11L232.555 33M230 11L249.167 1M230 11C221.055 12 10.2222 12 2.55549 11M232.555 33L251.722 23L249.167 1M232.555 33H1.27771L2.55549 11M249.167 1C238.944 1 31.9444 1 22.9999 1M249.167 1H22.9999M2.55549 11L22.9999 1" stroke="#2167F0" stroke-width="2"/>
</svg>
