<svg width="31" height="31" viewBox="0 0 31 31" fill="none" xmlns="http://www.w3.org/2000/svg">
<path d="M2.69567 21.5652C1.209 21.5652 0 22.7742 0 24.2609C0 25.7475 1.209 26.9565 2.69567 26.9565C4.18234 26.9565 5.39134 25.7475 5.39134 24.2609C5.39134 22.7742 4.18228 21.5652 2.69567 21.5652ZM2.69567 25.6087C1.953 25.6087 1.34787 25.0035 1.34787 24.2609C1.34787 23.5182 1.95306 22.913 2.69567 22.913C3.43828 22.913 4.04348 23.5182 4.04348 24.2609C4.04348 25.0035 3.43828 25.6087 2.69567 25.6087Z" fill="#2167F1"/>
<path d="M24.2609 0C22.7742 0 21.5652 1.209 21.5652 2.69567C21.5652 4.18234 22.7742 5.39134 24.2609 5.39134C25.7475 5.39134 26.9565 4.18234 26.9565 2.69567C26.9565 1.209 25.7475 0 24.2609 0ZM24.2609 4.04348C23.5182 4.04348 22.913 3.43828 22.913 2.69567C22.913 1.953 23.5182 1.34787 24.2609 1.34787C25.0035 1.34787 25.6087 1.95306 25.6087 2.69567C25.6087 3.43828 25.0035 4.04348 24.2609 4.04348Z" fill="#2167F1"/>
<path d="M22.7149 4.24161C22.4521 3.97878 22.0248 3.97878 21.762 4.24161L4.24028 21.7633C3.97745 22.0261 3.97745 22.4534 4.24028 22.7162C4.37239 22.847 4.54487 22.913 4.71741 22.913C4.88995 22.913 5.06243 22.847 5.19321 22.7162L22.7149 5.19454C22.9777 4.93171 22.9777 4.50443 22.7149 4.24161Z" fill="#2167F1"/>
<path d="M13.4782 14.826C14.2226 14.826 14.826 14.2226 14.826 13.4782C14.826 12.7339 14.2226 12.1304 13.4782 12.1304C12.7339 12.1304 12.1304 12.7339 12.1304 13.4782C12.1304 14.2226 12.7339 14.826 13.4782 14.826Z" fill="#2167F1"/>
<path d="M11.4565 26.9565H8.76082C8.38882 26.9565 8.08689 27.2585 8.08689 27.6305V30.3261C8.08689 30.6981 8.38882 31 8.76082 31H11.4565C11.8285 31 12.1304 30.6981 12.1304 30.3261V27.6304C12.1304 27.2584 11.8285 26.9565 11.4565 26.9565ZM10.7826 29.6521H9.43482V28.3043H10.7826V29.6521Z" fill="#2167F1"/>
<path d="M30.3261 8.08695H27.6304C27.2584 8.08695 26.9565 8.38889 26.9565 8.76089V11.4566C26.9565 11.8286 27.2584 12.1305 27.6304 12.1305H30.3261C30.6981 12.1305 31 11.8286 31 11.4566V8.76089C31 8.38889 30.6981 8.08695 30.3261 8.08695ZM29.6521 10.7826H28.3043V9.43482H29.6521V10.7826Z" fill="#2167F1"/>
<path d="M27.6304 9.43476L26.4901 9.43204C21.3981 9.41586 16.6052 9.39565 13.0011 13.0011C9.39704 16.6066 9.41321 21.4075 9.43204 26.4901L9.43476 27.6304C9.43476 28.0024 9.73669 28.3043 10.1087 28.3043C10.4807 28.3043 10.7826 28.0024 10.7826 27.6304L10.7799 26.4848C10.761 21.4817 10.7462 17.1618 13.954 13.954C17.1618 10.7462 21.4817 10.7637 26.4848 10.7799L27.6304 10.7826C28.0024 10.7826 28.3043 10.4807 28.3043 10.1087C28.3043 9.73669 28.0024 9.43476 27.6304 9.43476Z" fill="#2167F1"/>
</svg>
