<svg width="33" height="32" viewBox="0 0 33 32" fill="none" xmlns="http://www.w3.org/2000/svg">
<path d="M32.5505 0.45837C31.6038 -0.506921 29.7051 0.0438195 26.5751 2.1921C23.9162 4.01712 20.7268 6.78121 17.5945 9.97549C12.9509 14.711 9.42037 19.3605 8.24488 22.2311C8.05139 22.1596 7.85075 22.1024 7.64372 22.0607C6.42736 21.8153 5.10627 22.1291 4.01901 22.9208C2.45879 24.057 2.04558 25.6795 1.98558 25.953C1.65712 27.204 1.03509 28.3975 0.185983 29.4057C-0.0871051 29.7299 -0.0559098 30.2174 0.256237 30.5028C1.34723 31.4999 2.74284 32 4.19445 32C5.59347 32 7.04457 31.5354 8.32441 30.6033C8.92454 30.1663 9.37887 29.6831 9.46684 29.5874C10.5543 28.3957 11.016 26.8331 10.787 25.4054C13.5488 24.3958 18.3636 20.6611 23.2181 15.7105C26.3504 12.5162 29.0609 9.26365 30.8505 6.55215C32.957 3.3601 33.4972 1.42386 32.5505 0.45837ZM8.33975 28.5157C8.29837 28.5607 7.92113 28.9661 7.42903 29.3243C5.64162 30.6257 3.4533 30.7763 1.86383 29.7742C2.6082 28.7335 3.1614 27.5603 3.47921 26.3396V26.3396C3.48276 26.3259 3.48598 26.3121 3.48882 26.2982C3.49146 26.2857 3.75907 25.041 4.91446 24.1996C5.6576 23.6584 6.54364 23.4407 7.34505 23.6022C8.00601 23.7354 8.56166 24.1202 8.90965 24.6854C9.59253 25.7948 9.35244 27.406 8.33975 28.5157ZM10.2621 23.931C10.2463 23.9041 10.0126 23.4203 9.57732 23.0608C9.95237 22.0382 10.7598 20.6561 11.8851 19.0691L14.2992 21.531C12.6009 22.7777 11.2093 23.5903 10.2621 23.931ZM15.546 20.5803L12.8196 17.7999C13.2907 17.1814 13.8005 16.5407 14.3438 15.8854L17.425 19.0277C16.7729 19.5893 16.1448 20.1076 15.546 20.5803ZM29.3364 6.02671C27.601 8.58461 25.0411 11.6291 22.1285 14.5992C20.9057 15.8462 19.7201 16.9807 18.5937 17.997L15.3544 14.6936C16.3818 13.5084 17.502 12.292 18.6842 11.0866C21.5967 8.11642 24.5821 5.50594 27.0903 3.73593C30.1786 1.5567 31.2443 1.55321 31.449 1.58174C31.4771 1.7903 31.4733 2.87745 29.3364 6.02671Z" fill="#2167F1"/>
<path d="M7.68646 26.3929C7.31372 26.1837 6.84521 26.3222 6.63999 26.7024C6.61924 26.7408 6.59417 26.7768 6.56536 26.8093C6.50774 26.8704 6.31837 27.0571 6.12166 27.2004C5.82324 27.4177 5.50124 27.5734 5.16453 27.6632C4.75287 27.7731 4.50653 28.2024 4.61423 28.6222C4.70485 28.9753 5.01707 29.2092 5.35899 29.2092C5.42357 29.2092 5.48912 29.2008 5.55454 29.1835C6.07332 29.045 6.56542 28.8081 7.01717 28.4792C7.30715 28.2681 7.69206 27.8814 7.69471 27.8785C7.80924 27.7518 7.90863 27.611 7.99009 27.4601C8.19518 27.0799 8.05925 26.6021 7.68646 26.3929Z" fill="#2167F1"/>
</svg>
