<svg width="38" height="30" viewBox="0 0 38 30" fill="none" xmlns="http://www.w3.org/2000/svg">
<path d="M23.6932 0.404655L22.4054 0.033193C22.2397 -0.0249675 22.0764 -0.00667725 21.9176 0.0879101C21.7583 0.182574 21.6508 0.324685 21.5955 0.514012L13.85 28.7209C13.7947 28.9103 13.812 29.089 13.902 29.2562C13.992 29.4238 14.1267 29.5367 14.307 29.5949L15.5944 29.9665C15.7605 30.0251 15.9232 30.0067 16.0824 29.912C16.2417 29.8169 16.3491 29.6752 16.4043 29.4862L24.15 1.27882C24.2052 1.08949 24.188 0.910881 24.0979 0.74321C24.0079 0.575616 23.8732 0.462739 23.6932 0.404655Z" fill="#2167F1"/>
<path d="M12.0856 5.9109C12.0856 5.72157 12.0163 5.5539 11.8779 5.40835L10.8395 4.31585C10.7011 4.17022 10.5418 4.09721 10.3619 4.09721C10.1819 4.09721 10.0226 4.1703 9.88424 4.31585L0.207722 14.4973C0.0690951 14.6429 0 14.8105 0 14.9998C0 15.1892 0.0693133 15.3568 0.207722 15.5023L9.88417 25.6838C10.0225 25.8296 10.1816 25.9022 10.3618 25.9022C10.542 25.9022 10.7011 25.8294 10.8394 25.6838L11.8778 24.5919C12.0162 24.4463 12.0855 24.2787 12.0855 24.0891C12.0855 23.9 12.0162 23.7324 11.8778 23.5869L3.7171 14.9998L11.8779 6.41345C12.0165 6.2679 12.0856 6.10023 12.0856 5.9109Z" fill="#2167F1"/>
<path d="M37.7924 14.4971L28.1157 4.31566C27.9773 4.1701 27.818 4.09702 27.6383 4.09702C27.4581 4.09702 27.2993 4.1701 27.1605 4.31566L26.1225 5.40808C25.9842 5.55371 25.9152 5.72108 25.9152 5.91063C25.9152 6.10019 25.9841 6.26763 26.1225 6.41318L34.2835 14.9998L26.1225 23.5869C25.9842 23.7325 25.9152 23.9001 25.9152 24.0892C25.9152 24.2788 25.9841 24.4464 26.1225 24.5919L27.1605 25.6838C27.2993 25.8297 27.4582 25.9022 27.6383 25.9022C27.8181 25.9022 27.9773 25.8295 28.1157 25.6838L37.7924 15.5024C37.9308 15.3569 38 15.189 38 14.9997C38 14.8103 37.9308 14.6427 37.7924 14.4971Z" fill="#2167F1"/>
</svg>
