<svg width="406" height="282" viewBox="0 0 406 282" fill="none" xmlns="http://www.w3.org/2000/svg">
<path d="M229.471 130H271.471V92H229.471V130ZM179.471 130H221.471V92H179.471V130ZM130.471 130H172.471V92H130.471V130ZM81.4712 130H122.471V92H81.4712V130ZM31.4712 130H73.4712V92H31.4712V130ZM81.4712 84H122.471V46H81.4712V84ZM130.471 84H172.471V46H130.471V84ZM179.471 84H221.471V46H179.471V84ZM179.471 38H221.471V0H179.471V38ZM405.471 113C405.471 113 387.471 96 350.471 102C346.471 73 315.471 56 315.471 56C315.471 56 286.471 91 307.471 130C301.471 133 291.471 137 276.471 137H1.47123C-3.52877 156 -3.52876 282 134.471 282C233.471 282 307.471 236 342.471 152C394.471 156 405.471 113 405.471 113Z" fill="#2167F0"/>
</svg>
