<svg width="325" height="488" viewBox="0 0 325 488" fill="none" xmlns="http://www.w3.org/2000/svg">
<path d="M81.2337 488C126.075 488 162.467 451.563 162.467 406.667V325.333H81.2337C36.3927 325.333 0 361.771 0 406.667C0 451.563 36.3927 488 81.2337 488Z" fill="#2167F0"/>
<path d="M0 244C0 199.104 36.3927 162.667 81.2337 162.667H162.467V325.333H81.2337C36.3927 325.333 0 288.896 0 244Z" fill="#2167F0"/>
<path d="M0.000488281 81.3333C0.000488281 36.4373 36.3932 0 81.2342 0H162.468V162.667H81.2342C36.3932 162.667 0.000488281 126.229 0.000488281 81.3333Z" fill="#2167F0"/>
<path d="M162.468 0H243.701C288.542 0 324.935 36.4373 324.935 81.3333C324.935 126.229 288.542 162.667 243.701 162.667H162.468V0Z" fill="#2167F0"/>
<path d="M324.935 244C324.935 288.896 288.542 325.333 243.701 325.333C198.86 325.333 162.468 288.896 162.468 244C162.468 199.104 198.86 162.667 243.701 162.667C288.542 162.667 324.935 199.104 324.935 244Z" fill="#2167F0"/>
</svg>
