<svg width="30" height="30" viewBox="0 0 30 30" fill="none" xmlns="http://www.w3.org/2000/svg">
<path d="M19.2702 15.4184H21.0281V17.8782H19.2702V15.4184Z" fill="#2167F1"/>
<path d="M19.2702 19.4122H21.0281V21.5817H19.2702V19.4122Z" fill="#2167F1"/>
<path d="M19.2702 11.2388H21.0281V13.6986H19.2702V11.2388Z" fill="#2167F1"/>
<path d="M15.3719 19.7628H17.8315V21.5206H15.3719V19.7628Z" fill="#2167F1"/>
<path d="M11.231 19.7628H13.6906V21.5206H11.231V19.7628Z" fill="#2167F1"/>
<path d="M30 0H0V30H7.96875V28.1898H28.2545V7.96875H30V0ZM28.2422 1.75781V6.21094H26.3672V3.98438H24.6094V6.21094H22.7051V3.98438H20.9473V6.21094H19.043V3.98438H17.2852V6.21094H15.3809V3.98438H13.623V6.21094H11.7188V3.98438H9.96094V6.21094H7.96875V1.75781H28.2422ZM1.75781 1.75781H6.21094V6.21094H1.75781V1.75781ZM1.75781 28.2422V7.96875H6.21094V9.97078H4.13086V11.7286H6.21094V13.6329H4.13086V15.3907H6.21094V17.295H4.13086V19.0528H6.21094V20.9571H4.13086V22.7149H6.21094V24.6192H4.13086V26.377H6.21094V28.2422H1.75781ZM26.4967 26.432H7.96875V21.5206H9.54941V19.7628H7.96875V7.96875H19.2702V9.54964H21.0281V7.96875H26.4967V26.432Z" fill="#2167F1"/>
</svg>
