<svg width="218" height="148" viewBox="0 0 218 148" fill="none" xmlns="http://www.w3.org/2000/svg">
<path d="M57.8859 38.6005H104.156V42.2781H62.1273V69.9569H101.65V73.6345H62.1273V104.023H104.638V107.701H57.8859V38.6005ZM108.301 38.6005H113.217L135.003 68.9891L157.27 38.6005L187.558 0L137.798 72.1828L163.44 107.701H158.331L135.003 75.3765L111.579 107.701H106.566L132.4 72.1828L108.301 38.6005ZM165.271 42.2781V38.6005H218V42.2781H193.708V107.701H189.467V42.2781H165.271ZM0 38.6005H5.30179L78.4104 148L48.1981 107.701L4.43423 43.8266L4.24143 107.701H0V38.6005Z" fill="#2167F0"/>
</svg>
