<svg width="129" height="146" viewBox="0 0 129 146" fill="none" xmlns="http://www.w3.org/2000/svg">
<path d="M64.4986 145.364C62.5519 145.364 60.6186 144.854 58.9119 143.871L41.1293 133.343C38.4733 131.858 39.7693 131.332 40.6453 131.03C44.1866 129.79 44.9053 129.51 48.6853 127.363C49.0826 127.136 49.6026 127.216 50.0092 127.456L63.6706 135.563C64.1639 135.83 64.8639 135.83 65.3212 135.563L118.588 104.816C119.081 104.536 119.401 103.963 119.401 103.376V41.9099C119.401 41.2966 119.081 40.7499 118.577 40.4433L65.3319 9.72332C64.8386 9.42998 64.1852 9.42998 63.6919 9.72332L10.4573 40.4433C9.94132 40.7366 9.61332 41.3099 9.61332 41.8966V103.363C9.61332 103.95 9.93332 104.51 10.44 104.79L25.0266 113.216C32.9466 117.176 37.7866 112.51 37.7866 107.816V47.1499C37.7866 46.2832 38.4666 45.6166 39.3333 45.6166H46.0799C46.9199 45.6166 47.6133 46.2832 47.6133 47.1499V107.843C47.6133 118.403 41.8533 124.47 31.8399 124.47C28.76 124.47 26.3333 124.47 19.56 121.136L5.58666 113.083C2.13333 111.083 0 107.35 0 103.363V41.8966C0 37.8966 2.13333 34.1633 5.58666 32.1899L58.9066 1.43C62.2799 -0.476666 66.7599 -0.476666 70.1065 1.43L123.36 32.2033C126.8 34.1899 128.946 37.9099 128.946 41.9099V103.376C128.946 107.363 126.8 111.083 123.36 113.083L70.1065 143.843C68.3999 144.83 66.4666 145.336 64.4932 145.336" fill="#2167F0"/>
<path d="M80.9519 103.01C57.6452 103.01 52.7586 92.3111 52.7586 83.3378C52.7586 82.4845 53.4466 81.8045 54.3012 81.8045H61.1812C61.9412 81.8045 62.5812 82.3578 62.7012 83.1085C63.7412 90.1192 66.8345 93.6551 80.9279 93.6551C92.1545 93.6551 96.9278 91.1191 96.9278 85.1658C96.9278 81.7392 95.5678 79.1925 78.1279 77.4858C63.5412 76.0458 54.5279 72.8325 54.5279 61.1659C54.5279 50.4192 63.5946 44.0192 78.7812 44.0192C95.8345 44.0192 104.288 49.9392 105.354 62.6592C105.394 63.0992 105.234 63.5259 104.941 63.8459C104.648 64.1525 104.234 64.3392 103.808 64.3392H96.8878C96.1678 64.3392 95.5412 63.8325 95.3945 63.1392C93.7278 55.7659 89.7012 53.4059 78.7545 53.4059C66.5012 53.4059 65.0746 57.6725 65.0746 60.8725C65.0746 64.7525 66.7546 65.8858 83.2879 68.0725C99.6612 70.2458 107.434 73.3125 107.434 84.8191C107.434 96.4191 97.7545 103.072 80.8745 103.072L80.9519 103.01Z" fill="#2167F0"/>
</svg>
