<svg width="240" height="234" viewBox="0 0 240 234" fill="none" xmlns="http://www.w3.org/2000/svg">
<path d="M0 0V234H240V0H0ZM10 10H230V224H10V10ZM58 54.8C58 54.1 59.4 53.6 60.2 53.6C66.6 53.3 76.1 53.1 86 53.1C113.7 53.1 124.5 68.3 124.5 87.8C124.5 113.2 106.1 124.1 83.5 124.1C79.7 124.1 78.4 123.9 75.7 123.9V162.3C75.7 163.1 75.4 163.5 74.5 163.5H59.2C58.4 163.5 58 163.2 58 162.3V54.8ZM75.8 107.9C78.1 108.1 79.9 108.1 83.9 108.1C95.6 108.1 106.6 104 106.6 88.1C106.6 75.4 98.7 69 85.4 69C81.4 69 77.6 69.2 75.8 69.3V107.9ZM161.8 96C153.9 96 151.2 100 151.2 103.3C151.2 106.9 153 109.4 163.6 114.9C179.3 122.5 184.2 129.8 184.2 140.5C184.2 156.5 172 165.1 155.5 165.1C146.8 165.1 139.3 163.3 135 160.8C134.3 160.5 134.2 160 134.2 159.2V144.5C134.2 143.5 134.7 143.2 135.4 143.7C141.7 147.8 148.9 149.6 155.5 149.6C163.4 149.6 166.7 146.3 166.7 141.8C166.7 138.2 164.4 135 154.3 129.8C140.1 123 134.2 116.1 134.2 104.6C134.2 91.7 144.3 81 161.8 81C170.4 81 176.4 82.3 179.7 83.8C180.5 84.3 180.7 85.1 180.7 85.8V99.5C180.7 100.3 180.2 100.8 179.2 100.5C174.8 97.7 168.3 96 161.8 96Z" fill="#2167F0"/>
</svg>
