<svg width="44" height="30" viewBox="0 0 44 30" fill="none" xmlns="http://www.w3.org/2000/svg">
<path d="M14.0117 29H7.95703V5.48438H0.203125V0.445312H21.7656V5.48438H14.0117V29Z" fill="#2167F0"/>
<path d="M43.0156 21.0703C43.0156 23.6484 42.0846 25.6797 40.2227 27.1641C38.3737 28.6484 35.7956 29.3906 32.4883 29.3906C29.4414 29.3906 26.7461 28.8177 24.4023 27.6719V22.0469C26.3294 22.9062 27.957 23.5117 29.2852 23.8633C30.6263 24.2148 31.8503 24.3906 32.957 24.3906C34.2852 24.3906 35.3008 24.1367 36.0039 23.6289C36.7201 23.1211 37.0781 22.3659 37.0781 21.3633C37.0781 20.8034 36.9219 20.3086 36.6094 19.8789C36.2969 19.4362 35.8346 19.013 35.2227 18.6094C34.6237 18.2057 33.3932 17.5612 31.5312 16.6758C29.7865 15.8555 28.4779 15.0677 27.6055 14.3125C26.7331 13.5573 26.0365 12.6784 25.5156 11.6758C24.9948 10.6732 24.7344 9.5013 24.7344 8.16016C24.7344 5.63411 25.5872 3.64844 27.293 2.20312C29.0117 0.757812 31.3815 0.0351562 34.4023 0.0351562C35.8867 0.0351562 37.2995 0.210938 38.6406 0.5625C39.9948 0.914062 41.4076 1.40885 42.8789 2.04688L40.9258 6.75391C39.4023 6.12891 38.1393 5.69271 37.1367 5.44531C36.1471 5.19792 35.1706 5.07422 34.207 5.07422C33.0612 5.07422 32.1823 5.34115 31.5703 5.875C30.9583 6.40885 30.6523 7.10547 30.6523 7.96484C30.6523 8.4987 30.776 8.96745 31.0234 9.37109C31.2708 9.76172 31.6615 10.1458 32.1953 10.5234C32.7422 10.888 34.0247 11.5521 36.043 12.5156C38.7122 13.7917 40.5417 15.0742 41.5312 16.3633C42.5208 17.6393 43.0156 19.2083 43.0156 21.0703Z" fill="#2167F0"/>
</svg>
